<?xml version="1.0" encoding="UTF-8" standalone="no"?>
<!DOCTYPE svg PUBLIC "-//W3C//DTD SVG 1.1//EN" "http://www.w3.org/Graphics/SVG/1.1/DTD/svg11.dtd">
<svg width="100%" height="100%" viewBox="0 0 1197 467" version="1.1" xmlns="http://www.w3.org/2000/svg" xmlns:xlink="http://www.w3.org/1999/xlink" xml:space="preserve" xmlns:serif="http://www.serif.com/" style="fill-rule:evenodd;clip-rule:evenodd;stroke-linejoin:round;stroke-miterlimit:2;">
    <g transform="matrix(1,0,0,1,0,-1805)">
        <g id="Artboard1" transform="matrix(1.10833,0,0,0.432407,0,1805)">
            <rect x="0" y="0" width="1080" height="1080" style="fill:none;"/>
            <g transform="matrix(2.52921,0,0,3.25101,98.5197,-4793.1)">
                <path d="M43.116,1642.44C40.254,1638.16 36.962,1634.16 33.385,1631.6C37.964,1621.61 40.826,1608.48 40.826,1594.22C40.826,1578.52 37.392,1564.54 32.24,1554.27C26.945,1544.28 19.647,1538 11.777,1538C3.763,1538 -3.392,1544.28 -8.687,1554.27C-13.838,1564.54 -17.13,1578.52 -17.13,1594.22L-17.13,1740.6L18.073,1740.6C27.804,1740.6 36.819,1734.04 43.116,1723.77C49.555,1713.49 53.562,1698.94 53.562,1682.96C53.562,1667.27 49.555,1652.71 43.116,1642.44ZM-0.101,1571.67C2.905,1565.97 7.054,1562.26 11.777,1562.26C16.356,1562.26 20.506,1565.97 23.654,1571.67C26.659,1577.66 28.519,1585.37 28.519,1594.22C28.519,1602.78 26.659,1610.77 23.654,1616.47C20.649,1622.18 16.499,1625.89 11.777,1625.89L-4.823,1625.89L-4.823,1593.93C-4.823,1585.37 -3.106,1577.38 -0.101,1571.67ZM32.526,1706.64C28.806,1712.64 23.797,1716.35 18.073,1716.35L-4.823,1716.35L-4.823,1649.86L18.073,1649.86C23.797,1649.86 28.806,1653.57 32.526,1659.56C36.247,1665.55 38.536,1673.83 38.536,1682.96C38.536,1692.38 36.247,1700.65 32.526,1706.64Z" style="fill:rgb(133,203,51);fill-rule:nonzero;"/>
                <path d="M65.153,1678.11C65.153,1718.91 77.317,1742.88 94.632,1742.88C111.804,1742.88 123.967,1718.91 123.967,1678.11L123.967,1602.49L111.517,1602.49L111.517,1682.39C111.517,1704.08 104.362,1718.63 94.632,1718.63C84.615,1718.63 77.317,1704.08 77.317,1682.39L77.317,1602.49L65.153,1602.49L65.153,1678.11Z" style="fill:rgb(133,203,51);fill-rule:nonzero;"/>
                <path d="M167.899,1740.6C173.48,1740.6 178.631,1736.04 182.209,1728.62C185.929,1721.48 188.219,1711.21 188.219,1700.08C188.219,1688.67 185.929,1678.39 182.209,1671.26C178.631,1663.84 173.48,1659.28 167.899,1659.28L156.308,1659.28C154.161,1659.28 152.158,1657.56 150.584,1654.71C149.153,1651.57 148.294,1647.58 148.294,1643.3C148.294,1638.73 149.153,1634.74 150.584,1631.88C152.158,1628.74 154.161,1627.03 156.308,1627.03L167.899,1627.03C170.045,1627.03 172.049,1628.74 173.48,1631.88C175.054,1634.74 175.912,1638.73 175.912,1643.3L188.219,1643.3C188.219,1631.88 185.929,1621.61 182.209,1614.48C178.631,1607.06 173.48,1602.49 167.899,1602.49L156.308,1602.49C150.727,1602.49 145.575,1607.06 141.998,1614.48C138.277,1621.61 135.988,1631.88 135.988,1643.3C135.988,1654.42 138.277,1664.7 141.998,1671.83C145.575,1679.25 150.727,1683.82 156.308,1683.82L167.899,1683.82C170.045,1683.82 172.049,1685.53 173.48,1688.67C175.054,1691.52 175.912,1695.52 175.912,1700.08C175.912,1704.36 175.054,1708.36 173.48,1711.5C172.049,1714.35 170.045,1716.06 167.899,1716.06L156.308,1716.06C154.161,1716.06 152.158,1714.35 150.584,1711.5C149.153,1708.36 148.294,1704.36 148.294,1700.08L135.988,1700.08C135.988,1711.21 138.277,1721.48 141.998,1728.62C145.575,1736.04 150.727,1740.6 156.308,1740.6L167.899,1740.6Z" style="fill:rgb(133,203,51);fill-rule:nonzero;"/>
                <path d="M229.861,1599.35C223.279,1599.35 217.411,1603.63 212.689,1610.19L212.689,1538L200.383,1538L200.383,1740.6L212.689,1740.6L212.689,1661.27L212.689,1661.56C212.689,1639.87 219.844,1623.61 229.861,1623.61C239.592,1623.61 246.747,1638.16 246.747,1659.85L246.747,1740.6L259.197,1740.6L259.197,1664.13C259.197,1623.32 247.033,1599.35 229.861,1599.35Z" style="fill:rgb(133,203,51);fill-rule:nonzero;"/>
                <path d="M340.764,1671.26C340.764,1628.46 325.309,1599.64 305.847,1599.64C286.243,1599.64 271.217,1629.31 271.217,1671.26C271.217,1710.92 286.243,1742.88 305.847,1742.88C321.445,1742.88 334.181,1724.62 338.76,1696.09L326.024,1696.09C322.161,1712.92 314.576,1718.91 305.847,1718.91C295.687,1718.91 287.244,1703.22 284.668,1683.82L340.334,1683.82C340.621,1679.82 340.764,1675.54 340.764,1671.26ZM306.42,1623.32C317.009,1623.32 326.167,1637.87 328.028,1661.84L284.096,1661.84C286.243,1638.44 295.544,1623.32 306.42,1623.32Z" style="fill:rgb(133,203,51);fill-rule:nonzero;"/>
                <rect x="353.929" y="1538" width="12.307" height="202.601" style="fill:rgb(133,203,51);fill-rule:nonzero;"/>
            </g>
        </g>
    </g>
</svg>
