<?xml version="1.0" encoding="UTF-8"?><svg id="Layer_1" xmlns="http://www.w3.org/2000/svg" viewBox="0 0 108.61 147.98"><defs><style>.cls-1{fill:#55c5d0;}.cls-1,.cls-2{stroke-width:0px;}.cls-2{fill:#231f20;}</style></defs><path class="cls-2" d="M59.77,38.49v73.1c0,22.54-14.56,36.39-37.09,36.39-7.72-.09-15.38-1.41-22.68-3.92l4.76-22c2.71.9,5.54,1.42,8.4,1.54,4.62,0,8.82-2.38,8.82-8.54V38.49h37.79ZM20.02,16.66C20.02,6.44,28.56,0,40.87,0s20.82,6.44,20.82,16.66-8.5,16.66-20.82,16.66-20.86-6.44-20.86-16.66Z"/><path class="cls-1" d="M66.9,16.66c0-10.22,8.54-16.66,20.86-16.66s20.86,6.44,20.86,16.66-8.54,16.66-20.86,16.66-20.86-6.42-20.86-16.66ZM106.67,117.23h-37.79V38.49h37.79v78.74Z"/></svg>