<?xml version="1.0" encoding="UTF-8" standalone="no"?>
<!DOCTYPE svg PUBLIC "-//W3C//DTD SVG 1.1//EN" "http://www.w3.org/Graphics/SVG/1.1/DTD/svg11.dtd">
<svg width="100%" height="100%" viewBox="0 0 1080 1080" version="1.1" xmlns="http://www.w3.org/2000/svg" xmlns:xlink="http://www.w3.org/1999/xlink" xml:space="preserve" xmlns:serif="http://www.serif.com/" style="fill-rule:evenodd;clip-rule:evenodd;stroke-linejoin:round;stroke-miterlimit:2;">
    <g transform="matrix(1,0,0,1,-1308,-1805)">
        <g id="Artboard1" transform="matrix(1,0,0,1,1308,1805)">
            <rect x="0" y="0" width="1080" height="1080" style="fill:none;"/>
            <g transform="matrix(10.1377,0,0,5.08389,355.33,-7794.03)">
                <path d="M43.116,1642.44C40.254,1638.16 36.962,1634.16 33.385,1631.6C37.964,1621.61 40.826,1608.48 40.826,1594.22C40.826,1578.52 37.392,1564.54 32.24,1554.27C26.945,1544.28 19.647,1538 11.777,1538C3.763,1538 -3.392,1544.28 -8.687,1554.27C-13.838,1564.54 -17.13,1578.52 -17.13,1594.22L-17.13,1740.6L18.073,1740.6C27.804,1740.6 36.819,1734.04 43.116,1723.77C49.555,1713.49 53.562,1698.94 53.562,1682.96C53.562,1667.27 49.555,1652.71 43.116,1642.44ZM-0.101,1571.67C2.905,1565.97 7.054,1562.26 11.777,1562.26C16.356,1562.26 20.506,1565.97 23.654,1571.67C26.659,1577.66 28.519,1585.37 28.519,1594.22C28.519,1602.78 26.659,1610.77 23.654,1616.47C20.649,1622.18 16.499,1625.89 11.777,1625.89L-4.823,1625.89L-4.823,1593.93C-4.823,1585.37 -3.106,1577.38 -0.101,1571.67ZM32.526,1706.64C28.806,1712.64 23.797,1716.35 18.073,1716.35L-4.823,1716.35L-4.823,1649.86L18.073,1649.86C23.797,1649.86 28.806,1653.57 32.526,1659.56C36.247,1665.55 38.536,1673.83 38.536,1682.96C38.536,1692.38 36.247,1700.65 32.526,1706.64Z" style="fill:rgb(133,203,51);fill-rule:nonzero;"/>
            </g>
            <g transform="matrix(10.1377,0,0,5.08389,355.33,-7794.03)">
                <clipPath id="_clip1">
                    <path d="M-17.13,1740.6L33.385,1631.6L69.017,1631.6L69.017,1745.52L-17.13,1745.52L-17.13,1740.6Z"/>
                </clipPath>
                <g clip-path="url(#_clip1)">
                    <path d="M43.116,1642.44C40.254,1638.16 36.962,1634.16 33.385,1631.6C37.964,1621.61 40.826,1608.48 40.826,1594.22C40.826,1578.52 37.392,1564.54 32.24,1554.27C26.945,1544.28 19.647,1538 11.777,1538C3.763,1538 -3.392,1544.28 -8.687,1554.27C-13.838,1564.54 -17.13,1578.52 -17.13,1594.22L-17.13,1740.6L18.073,1740.6C27.804,1740.6 36.819,1734.04 43.116,1723.77C49.555,1713.49 53.562,1698.94 53.562,1682.96C53.562,1667.27 49.555,1652.71 43.116,1642.44ZM-0.101,1571.67C2.905,1565.97 7.054,1562.26 11.777,1562.26C16.356,1562.26 20.506,1565.97 23.654,1571.67C26.659,1577.66 28.519,1585.37 28.519,1594.22C28.519,1602.78 26.659,1610.77 23.654,1616.47C20.649,1622.18 16.499,1625.89 11.777,1625.89L-4.823,1625.89L-4.823,1593.93C-4.823,1585.37 -3.106,1577.38 -0.101,1571.67ZM32.526,1706.64C28.806,1712.64 23.797,1716.35 18.073,1716.35L-4.823,1716.35L-4.823,1649.86L18.073,1649.86C23.797,1649.86 28.806,1653.57 32.526,1659.56C36.247,1665.55 38.536,1673.83 38.536,1682.96C38.536,1692.38 36.247,1700.65 32.526,1706.64Z" style="fill:white;fill-rule:nonzero;"/>
                </g>
            </g>
        </g>
    </g>
</svg>
