<?xml version="1.0" encoding="UTF-8" standalone="no"?>
<!DOCTYPE svg PUBLIC "-//W3C//DTD SVG 1.1//EN" "http://www.w3.org/Graphics/SVG/1.1/DTD/svg11.dtd">
<svg width="100%" height="100%" viewBox="0 0 3000 733" version="1.1" xmlns="http://www.w3.org/2000/svg" xmlns:xlink="http://www.w3.org/1999/xlink" xml:space="preserve" xmlns:serif="http://www.serif.com/" style="fill-rule:evenodd;clip-rule:evenodd;stroke-linejoin:round;stroke-miterlimit:2;">
    <g transform="matrix(1,0,0,1,0,-3162)">
        <g id="Artboard1" transform="matrix(1,0,0,0.244333,0,3162)">
            <rect x="0" y="0" width="3000" height="3000" style="fill:none;"/>
            <g transform="matrix(-2.28697,-1.14627e-15,3.38035e-16,-11.2971,4569.12,12579.6)">
                <path d="M748.557,893.805C780.089,902.906 793.117,924.806 793.117,952.412L793.117,1072.27L754.498,1072.27L754.498,952.683C754.498,939.171 748.343,927.89 729.838,923.36L748.557,893.805ZM1954.17,1071.79C1952.35,1072.11 1950.32,1072.27 1948.09,1072.27L1850.88,1072.27C1798.85,1072.27 1776.92,1051.93 1776.92,1022.1C1776.92,1000.95 1788.05,988.206 1808.66,981.427C1787.72,974.376 1775.94,960.818 1775.94,939.668C1775.94,912.565 1794.72,892.429 1838.77,889.579L1858.64,920.958L1848.92,920.958C1825.68,920.958 1814.88,929.906 1814.88,944.82C1814.88,960.276 1826.34,968.411 1848.92,968.411L1888.69,968.411L1905.52,994.985L1849.9,994.985C1826.99,994.985 1815.87,1002.03 1815.87,1016.95C1815.87,1031.32 1826.01,1040.81 1849.58,1040.81L1930.46,1040.75L1954.17,1071.79ZM1732.74,1072.27L1693.46,1072.27L1693.46,949.972C1693.46,931.804 1682.34,921.229 1656.81,921.229L1617.53,921.229C1592.66,921.229 1581.21,931.804 1581.21,949.972L1581.21,1072.27L1543.24,1072.27L1543.24,947.531C1543.24,909.026 1567.79,889.232 1614.91,889.232L1661.39,889.232C1708.52,889.232 1732.74,909.026 1732.74,947.531L1732.74,1072.27ZM1432.95,1072.27L1321.02,1072.27L1321.02,1040.27L1434.26,1040.27C1454.22,1040.27 1463.06,1031.32 1463.06,1018.58C1463.06,1007.46 1456.18,996.883 1430.33,996.883L1378.62,996.883C1318.4,996.883 1304.33,969.224 1304.33,942.922C1304.33,912.009 1324.29,889.232 1374.69,889.232L1497.75,889.232L1497.75,921.229L1373.38,921.229C1352.44,921.229 1342.95,930.719 1342.95,944.006C1342.95,955.937 1350.47,966.784 1377.64,966.784L1429.02,966.784C1487.93,966.784 1501.68,994.171 1501.68,1019.66C1501.68,1050.03 1482.04,1072.27 1432.95,1072.27ZM1261.45,1072.27L1222.84,1072.27L1222.84,997.696L1109.92,997.696L1109.92,1072.27L1070.98,1072.27L1070.98,889.232L1109.92,889.232L1109.92,965.699L1222.84,965.699L1222.84,889.232L1261.45,889.232L1261.45,1072.27ZM951.848,1072.27L841.227,1072.27L841.227,1040.27L951.848,1040.27C975.085,1040.27 985.23,1031.32 985.23,1017.22C985.23,1002.31 973.775,995.527 951.521,995.527L842.864,995.527L842.864,966.513L952.502,966.513C974.757,966.513 986.212,959.191 986.212,944.277C986.212,929.906 975.412,921.229 952.83,921.229L840.9,921.229L840.9,889.232L952.83,889.232C1005.19,889.232 1026.47,910.653 1026.47,939.125C1026.47,960.005 1015.01,974.105 994.721,981.155C1015.34,988.206 1025.81,1002.31 1025.81,1022.37C1025.81,1051.66 1003.88,1072.27 951.848,1072.27Z" style="fill:rgb(133,203,51);"/>
            </g>
        </g>
    </g>
</svg>
