<?xml version="1.0" encoding="UTF-8" standalone="no"?>
<!DOCTYPE svg PUBLIC "-//W3C//DTD SVG 1.1//EN" "http://www.w3.org/Graphics/SVG/1.1/DTD/svg11.dtd">
<svg width="100%" height="100%" viewBox="0 0 1080 208" version="1.1" xmlns="http://www.w3.org/2000/svg" xmlns:xlink="http://www.w3.org/1999/xlink" xml:space="preserve" xmlns:serif="http://www.serif.com/" style="fill-rule:evenodd;clip-rule:evenodd;stroke-linecap:round;stroke-linejoin:round;">
    <g id="Artboard1" transform="matrix(1,0,0,0.192593,0,0)">
        <rect x="0" y="0" width="1080" height="1080" style="fill:none;"/>
        <g transform="matrix(1.56159,0,0,8.10828,-110.916,-603.816)">
            <path d="M113.049,181.732C103.367,181.732 95.974,178.672 90.871,172.551C85.767,166.43 83.215,157.511 83.215,145.794C83.215,138.048 84.627,131.525 87.449,126.225C90.272,120.924 94.079,116.912 98.871,114.188C103.663,111.464 109.012,110.102 114.92,110.102C119.909,110.102 124.11,110.873 127.523,112.415C130.936,113.958 133.972,115.993 136.631,118.52L128.163,127.283C126.095,125.445 124.11,124.083 122.206,123.197C120.303,122.311 118.136,121.868 115.708,121.868C112.655,121.868 109.939,122.68 107.56,124.305C105.181,125.929 103.302,128.506 101.923,132.034C100.545,135.562 99.855,140.182 99.855,145.892C99.855,151.833 100.339,156.559 101.308,160.071C102.276,163.583 103.745,166.102 105.714,167.628C107.683,169.154 110.177,169.917 113.197,169.917C114.805,169.917 116.315,169.728 117.726,169.351C119.137,168.973 120.45,168.473 121.665,167.849L121.665,152.243L113.098,152.243L111.523,140.92L136.926,140.92L136.926,174.84C133.513,176.941 129.845,178.614 125.923,179.862C122.001,181.109 117.71,181.732 113.049,181.732Z" style="fill:rgb(133,203,51);fill-rule:nonzero;"/>
        </g>
        <g transform="matrix(1.56159,0,0,8.10828,-110.916,-603.816)">
            <path d="M169.517,100.403C172.208,100.403 174.407,101.24 176.114,102.914C177.821,104.588 178.674,106.672 178.674,109.166C178.674,111.661 177.821,113.753 176.114,115.443C174.407,117.133 172.208,117.978 169.517,117.978C166.793,117.978 164.569,117.133 162.846,115.443C161.123,113.753 160.262,111.661 160.262,109.166C160.262,106.672 161.123,104.588 162.846,102.914C164.569,101.24 166.793,100.403 169.517,100.403ZM178.92,127.775L178.92,169.425L192.212,169.425L192.212,180.058L148.545,180.058L148.545,169.425L163.363,169.425L163.363,138.409L149.037,138.409L149.037,127.775L178.92,127.775Z" style="fill:rgb(133,203,51);fill-rule:nonzero;"/>
        </g>
        <g transform="matrix(1.56159,0,0,8.10828,-110.916,-603.816)">
            <path d="M253.111,177.006C251.076,178.319 248.614,179.435 245.726,180.354C242.838,181.273 239.589,181.732 235.978,181.732C229.152,181.732 224.081,179.985 220.766,176.489C217.451,172.994 215.794,168.243 215.794,162.237L215.794,138.508L204.815,138.508L204.815,127.775L215.794,127.775L215.794,116.452L231.351,114.582L231.351,127.775L248.188,127.775L246.662,138.508L231.351,138.508L231.351,162.237C231.351,164.83 231.942,166.684 233.123,167.8C234.305,168.916 236.192,169.474 238.785,169.474C240.623,169.474 242.305,169.252 243.831,168.809C245.357,168.366 246.727,167.8 247.942,167.111L253.111,177.006Z" style="fill:rgb(133,203,51);fill-rule:nonzero;"/>
        </g>
        <g transform="matrix(1.56159,0,0,8.10828,-110.916,-603.816)">
            <path d="M278.957,118.028L278.957,143.48L306.329,143.48L306.329,148.945L278.957,148.945L278.957,180.058L272.754,180.058L272.754,112.415L311.203,112.415L310.366,118.028L278.957,118.028Z" style="fill:white;fill-rule:nonzero;"/>
        </g>
        <g transform="matrix(1.56159,0,0,8.10828,-110.916,-603.816)">
            <path d="M328.582,180.058L328.582,174.938L337,174.938L337,133.535L328.582,133.535L328.582,128.366L341.677,128.366L342.809,140.772C344.844,136.571 347.281,133.281 350.12,130.902C352.959,128.522 356.791,127.332 361.615,127.332C362.961,127.332 364.167,127.431 365.234,127.628C366.301,127.825 367.425,128.071 368.606,128.366L367.917,144.612L362.009,144.612L362.009,134.52L362.108,133.24C361.714,133.207 361.304,133.191 360.877,133.191C356.709,133.191 353.164,134.61 350.243,137.449C347.322,140.288 344.943,144.776 343.105,150.914L343.105,174.938L353.738,174.938L353.738,180.058L328.582,180.058Z" style="fill:white;fill-rule:nonzero;"/>
        </g>
        <g transform="matrix(1.56159,0,0,8.10828,-110.916,-603.816)">
            <path d="M405.972,104.982C407.548,104.982 408.795,105.457 409.714,106.409C410.633,107.361 411.092,108.51 411.092,109.855C411.092,111.299 410.633,112.506 409.714,113.474C408.795,114.442 407.548,114.926 405.972,114.926C404.495,114.926 403.297,114.442 402.378,113.474C401.459,112.506 401,111.299 401,109.855C401,108.51 401.459,107.361 402.378,106.409C403.297,105.457 404.495,104.982 405.972,104.982ZM411.732,128.366L411.732,174.742L426.748,174.742L426.748,180.058L389.283,180.058L389.283,174.742L405.628,174.742L405.628,133.683L389.775,133.683L389.775,128.366L411.732,128.366Z" style="fill:white;fill-rule:nonzero;"/>
        </g>
        <g transform="matrix(1.56159,0,0,8.10828,-110.916,-603.816)">
            <path d="M450.674,156.674C450.772,161.006 451.552,164.559 453.012,167.332C454.473,170.106 456.401,172.149 458.797,173.462C461.193,174.774 463.802,175.431 466.625,175.431C469.349,175.431 471.769,175.037 473.886,174.249C476.003,173.462 478.227,172.264 480.557,170.655L483.757,175.234C481.361,177.072 478.662,178.499 475.658,179.517C472.655,180.534 469.726,181.043 466.871,181.043C462.112,181.043 458.034,179.927 454.637,177.695C451.24,175.464 448.639,172.337 446.834,168.317C445.029,164.296 444.126,159.611 444.126,154.262C444.126,149.01 445.045,144.366 446.883,140.329C448.721,136.292 451.273,133.133 454.538,130.852C457.804,128.571 461.603,127.431 465.935,127.431C472.204,127.431 477.111,129.671 480.655,134.151C484.2,138.631 485.972,144.727 485.972,152.44C485.972,153.326 485.956,154.122 485.923,154.828C485.89,155.533 485.857,156.149 485.825,156.674L450.674,156.674ZM466.083,133.142C461.915,133.142 458.411,134.618 455.572,137.572C452.733,140.526 451.133,145.055 450.772,151.16L480.163,151.16C480.032,145.088 478.67,140.567 476.077,137.597C473.484,134.627 470.153,133.142 466.083,133.142Z" style="fill:white;fill-rule:nonzero;"/>
        </g>
        <g transform="matrix(1.56159,0,0,8.10828,-110.916,-603.816)">
            <path d="M505.32,180.058L505.32,128.366L510.44,128.366L510.932,135.898C512.967,133.207 515.65,131.123 518.982,129.646C522.313,128.169 525.423,127.431 528.311,127.431C533.595,127.431 537.361,128.776 539.609,131.468C541.857,134.159 542.982,137.884 542.982,142.643L542.982,180.058L536.877,180.058L536.877,149.191C536.877,145.252 536.664,142.052 536.237,139.591C535.81,137.129 534.891,135.332 533.48,134.2C532.069,133.068 529.853,132.502 526.834,132.502C524.536,132.502 522.378,133.002 520.36,134.003C518.342,135.004 516.569,136.235 515.043,137.695C513.517,139.156 512.311,140.575 511.425,141.954L511.425,180.058L505.32,180.058Z" style="fill:white;fill-rule:nonzero;"/>
        </g>
        <g transform="matrix(1.56159,0,0,8.10828,-110.916,-603.816)">
            <path d="M595.806,106.606L601.911,107.443L601.911,180.058L596.594,180.058L595.806,172.92C593.738,175.874 591.433,177.966 588.889,179.197C586.346,180.428 583.728,181.043 581.037,181.043C576.475,181.043 572.725,179.919 569.788,177.671C566.85,175.423 564.676,172.288 563.265,168.268C561.853,164.247 561.148,159.611 561.148,154.36C561.148,149.207 561.944,144.604 563.535,140.551C565.127,136.497 567.425,133.297 570.428,130.951C573.431,128.604 577.066,127.431 581.332,127.431C584.483,127.431 587.24,127.981 589.603,129.08C591.966,130.179 594.034,131.796 595.806,133.929L595.806,106.606ZM582.858,132.698C578.067,132.698 574.399,134.512 571.855,138.138C569.312,141.765 568.04,147.156 568.04,154.311C568.04,161.105 569.197,166.372 571.511,170.114C573.825,173.855 577.263,175.726 581.825,175.726C585.107,175.726 587.888,174.807 590.169,172.969C592.45,171.131 594.329,169.113 595.806,166.914L595.806,140.034C594.296,137.704 592.417,135.898 590.169,134.618C587.921,133.338 585.484,132.698 582.858,132.698Z" style="fill:white;fill-rule:nonzero;"/>
        </g>
        <g transform="matrix(1.56159,0,0,8.10828,-110.916,-603.816)">
            <path d="M640.114,175.48C644.512,175.48 647.966,174.635 650.477,172.945C652.988,171.254 654.243,169.031 654.243,166.274C654.243,164.567 653.972,163.082 653.431,161.818C652.889,160.555 651.724,159.423 649.935,158.422C648.147,157.421 645.398,156.477 641.689,155.591C637.981,154.672 634.772,153.654 632.065,152.538C629.357,151.423 627.265,149.962 625.788,148.157C624.311,146.352 623.572,143.956 623.572,140.969C623.572,138.114 624.385,135.677 626.009,133.658C627.634,131.64 629.866,130.097 632.705,129.031C635.544,127.964 638.752,127.431 642.329,127.431C646.366,127.431 649.886,127.972 652.889,129.055C655.892,130.138 658.411,131.451 660.446,132.994L657.591,137.523C655.687,136.177 653.57,135.062 651.24,134.175C648.91,133.289 645.956,132.846 642.378,132.846C637.816,132.846 634.616,133.568 632.778,135.012C630.941,136.456 630.022,138.278 630.022,140.477C630.022,142.184 630.473,143.587 631.375,144.686C632.278,145.786 633.763,146.754 635.831,147.591C637.898,148.428 640.688,149.322 644.2,150.274C647.581,151.16 650.534,152.227 653.062,153.474C655.589,154.721 657.558,156.346 658.969,158.348C660.381,160.35 661.086,162.943 661.086,166.126C661.086,169.769 660.061,172.682 658.009,174.865C655.958,177.047 653.324,178.623 650.108,179.591C646.891,180.559 643.544,181.043 640.065,181.043C635.503,181.043 631.654,180.37 628.52,179.025C625.386,177.679 622.785,176.104 620.717,174.298L624.508,169.818C626.543,171.525 628.889,172.895 631.548,173.929C634.206,174.963 637.062,175.48 640.114,175.48Z" style="fill:white;fill-rule:nonzero;"/>
        </g>
        <g transform="matrix(0.60659,0,0,0.813647,731.201,-454.686)">
            <g transform="matrix(8.37491,32.419,-8.37491,32.419,427.876,525.495)">
                <path d="M10,18C10,19.097 10.903,20 12,20C13.097,20 14,19.097 14,18C14,16.903 13.097,16 12,16C10.903,16 10,16.903 10,18" style="fill:none;fill-rule:nonzero;stroke:rgb(133,203,51);stroke-width:2px;"/>
            </g>
            <g transform="matrix(8.37491,32.419,-8.37491,32.419,427.876,525.495)">
                <path d="M5,6C5,7.097 5.903,8 7,8C8.097,8 9,7.097 9,6C9,4.903 8.097,4 7,4C5.903,4 5,4.903 5,6" style="fill:none;fill-rule:nonzero;stroke:rgb(133,203,51);stroke-width:2px;"/>
            </g>
            <g transform="matrix(8.37491,32.419,-8.37491,32.419,427.876,525.495)">
                <path d="M15,6C15,7.097 15.903,8 17,8C18.097,8 19,7.097 19,6C19,4.903 18.097,4 17,4C15.903,4 15,4.903 15,6" style="fill:none;fill-rule:nonzero;stroke:rgb(133,203,51);stroke-width:2px;"/>
            </g>
            <g transform="matrix(8.37491,32.419,-8.37491,32.419,427.876,525.495)">
                <path d="M7,8L7,10C7,11.097 7.903,12 9,12L15,12C16.097,12 17,11.097 17,10L17,8" style="fill:none;fill-rule:nonzero;stroke:rgb(133,203,51);stroke-width:2px;"/>
            </g>
            <g transform="matrix(8.37491,32.419,-8.37491,32.419,427.876,525.495)">
                <path d="M12,12L12,16" style="fill:none;fill-rule:nonzero;stroke:rgb(133,203,51);stroke-width:2px;"/>
            </g>
        </g>
    </g>
</svg>
